<svg xmlns="http://www.w3.org/2000/svg" viewBox="0 0 373.4 541.68">
	<g style="isolation:isolate;">
		<g id="Layer_1" data-name="Layer 1">
			<g style="opacity:0.22;">
				<path style="fill: #f6f8e1; opacity: 0.33;"
					d="M1159.4,750.15v60.69H786V755.4A1937.89,1937.89,0,0,1,1159.4,750.15Z" transform="translate(-786 -269.16)" />
				<path style="fill: #f6f8e1; opacity: 0.33;"
					d="M1159.4,655v40.89a2285.4,2285.4,0,0,0-373.4.7v-41.5A1784.22,1784.22,0,0,1,1159.4,655Z"
					transform="translate(-786 -269.16)" />
				<path style="fill: #f6f8e1; opacity: 0.33;"
					d="M1159.4,597.85V615.2A1741.79,1741.79,0,0,0,786,616.86V597.21C910.22,583.13,1036.4,579.4,1159.4,597.85Z"
					transform="translate(-786 -269.16)" />
			</g>
			<path style="fill: #682d7f; opacity: 0.33; mix-blend-mode: multiply;"
				d="M1159.4,269.16V501.77L1088,534.49c6.63,20.42-9.44,24.91-9.44,24.91l-2.49,7.34a457.48,457.48,0,0,1-206.64,0l-2.49-7.34s-16.07-4.49-9.44-24.91L786,501.77V269.16h57.1a204.58,204.58,0,0,0-19.33,87.74c0,98.27,66.67,177.94,148.93,177.94s148.93-79.67,148.93-177.94a204.58,204.58,0,0,0-19.33-87.74Z"
				transform="translate(-786 -269.16)" />
			<path style="fill: #4b2363; opacity: 0.44; mix-blend-mode: multiply;"
				d="M1159.4,501.77v34.79A373.3,373.3,0,0,1,1076,566.74l2.49-7.34s16.07-4.49,9.44-24.91Z"
				transform="translate(-786 -269.16)" />
			<path style="fill: #4b2363; opacity: 0.44; mix-blend-mode: multiply;"
				d="M866.89,559.4l2.49,7.34A373.3,373.3,0,0,1,786,536.56V501.77l71.45,32.72C850.82,554.91,866.89,559.4,866.89,559.4Z"
				transform="translate(-786 -269.16)" />
			<path style="fill: #2a1a44; opacity: 0.44;"
				d="M1076,566.74a373.3,373.3,0,0,0,83.38-30.18v61.29c-123-18.45-249.18-14.72-373.4-.64V536.56a373.3,373.3,0,0,0,83.38,30.18,457.48,457.48,0,0,0,206.64,0Z"
				transform="translate(-786 -269.16)" />
		</g>
	</g>
</svg>