<svg width="32" height="32" viewBox="0 0 32 32" fill="none" xmlns="http://www.w3.org/2000/svg">
<path fill-rule="evenodd" clip-rule="evenodd" d="M22.6664 4.6667L25.9997 6.00002L31.9996 0.666748L25.9997 9.99998L22.6664 4.6667ZM1.99998 5.33336C0.89542 5.33336 0 6.22878 0 7.33334C0 8.4379 0.895422 9.33332 1.99998 9.33332H17.9998C19.1044 9.33332 19.9998 8.4379 19.9998 7.33334C19.9998 6.22878 19.1044 5.33336 17.9998 5.33336H1.99998ZM0 16.6666C0 15.562 0.89542 14.6666 1.99998 14.6666H17.9998C19.1044 14.6666 19.9998 15.562 19.9998 16.6666C19.9998 17.7711 19.1044 18.6665 17.9998 18.6665H1.99998C0.895422 18.6665 0 17.7711 0 16.6666ZM1.99998 23.9998C0.89542 23.9998 0 24.8952 0 25.9998C0 27.1044 0.895422 27.9998 1.99998 27.9998H17.9998C19.1044 27.9998 19.9998 27.1044 19.9998 25.9998C19.9998 24.8952 19.1044 23.9998 17.9998 23.9998H1.99998ZM23.9997 25.9998C23.9997 24.8952 24.8952 23.9998 25.9997 23.9998C27.1043 23.9998 27.9997 24.8952 27.9997 25.9998C27.9997 27.1044 27.1043 27.9998 25.9997 27.9998C24.8952 27.9998 23.9997 27.1044 23.9997 25.9998ZM25.9997 14.6666C24.8952 14.6666 23.9997 15.562 23.9997 16.6666C23.9997 17.7711 24.8952 18.6665 25.9997 18.6665C27.1043 18.6665 27.9997 17.7711 27.9997 16.6666C27.9997 15.562 27.1043 14.6666 25.9997 14.6666Z" fill="#84A6EB"/>
</svg>
