<svg width="32" height="32" viewBox="0 0 32 32" fill="none" xmlns="http://www.w3.org/2000/svg">
<path fill-rule="evenodd" clip-rule="evenodd" d="M0 16C0 7.17411 7.17411 0 16 0C24.8012 0 32 7.17411 32 16C32 24.8259 24.8259 32 16 32C7.17411 32 0 24.8259 0 16ZM27.6857 22.3112C27.8582 22.4099 27.9815 22.5824 28.0062 22.7797C28.0308 23.0015 28.0555 23.2727 28.0801 23.6179C29.3374 21.6456 30.1017 19.3282 30.2496 16.8629C30.0277 17.1834 29.7812 17.4545 29.584 17.6518C29.4854 17.7504 29.3128 17.8243 29.1649 17.8243H29.0416C28.8444 17.775 28.6718 17.6518 28.5978 17.4545C28.2034 16.5177 27.1926 14.2743 25.9599 13.4114C25.5901 13.1402 25.4176 12.6471 25.5901 12.228C26.1325 10.8228 25.6888 8.40678 25.4669 7.42065C25.4176 7.22342 25.4669 7.02619 25.6148 6.87827C25.7627 6.73035 25.9599 6.65639 26.1572 6.7057C26.2118 6.71936 26.2721 6.73301 26.337 6.74772C26.5065 6.7861 26.7075 6.83163 26.9214 6.90293C25.3929 5.07858 23.4206 3.64869 21.1772 2.76117C21.4237 3.05701 21.5963 3.3775 21.7196 3.62404C21.8182 3.79661 21.8182 4.01849 21.7196 4.19106C21.621 4.36364 21.4484 4.46225 21.2512 4.4869C20.2404 4.56086 17.7997 4.83205 16.5917 5.74422C16.3945 5.86749 16.1972 5.94145 15.9753 5.94145C15.7288 5.94145 15.5069 5.86749 15.3344 5.71957C14.151 4.75809 11.7103 4.4376 10.7242 4.33898C10.527 4.31433 10.3544 4.19106 10.2558 4.01849C10.1572 3.84592 10.1572 3.62404 10.2558 3.45146C10.3544 3.27889 10.5023 3.03236 10.6749 2.78582C8.43143 3.67334 6.45917 5.12789 4.95532 6.97689C5.32512 6.85362 5.67026 6.77966 5.94145 6.73035C6.13867 6.7057 6.3359 6.77966 6.48382 6.92758C6.63174 7.0755 6.68105 7.27273 6.63174 7.46995C6.38521 8.43143 5.89214 10.8475 6.38521 12.2773C6.53313 12.6965 6.38521 13.1895 5.99075 13.4361C4.73344 14.2743 3.64869 16.4931 3.25424 17.4052C3.18028 17.5778 3.0077 17.7257 2.81048 17.7504H2.71186C2.53929 17.7504 2.39137 17.6764 2.29276 17.5285C2.14484 17.3806 1.94761 17.1587 1.77504 16.9122C1.94761 19.3775 2.73652 21.6703 3.99384 23.6425C3.99384 23.2727 4.01849 22.9029 4.0678 22.6317C4.09245 22.4345 4.24037 22.2619 4.41294 22.188C4.58552 22.0894 4.8074 22.114 4.97997 22.2126C5.84284 22.7304 7.98767 23.9877 9.49153 23.9384C9.95994 23.9384 10.3544 24.2342 10.4777 24.678C10.8721 26.1325 12.6718 27.8336 13.4114 28.4992C13.5593 28.6471 13.6333 28.8444 13.6086 29.0416C13.5593 29.2635 13.4361 29.4361 13.2635 29.51C13.0663 29.6086 12.8197 29.7072 12.5239 29.8059C13.6579 30.1017 14.8166 30.2496 16.0247 30.2496C17.2573 30.2496 18.4653 30.077 19.624 29.7812C19.2296 29.6579 18.9091 29.51 18.6626 29.3867C18.49 29.2881 18.3667 29.1156 18.3421 28.9183C18.3174 28.7211 18.3914 28.5239 18.5393 28.4006C19.3035 27.7596 21.1279 26.1079 21.5716 24.6533C21.6949 24.2096 22.1387 23.9137 22.5824 23.9384C24.0863 24.0123 26.2558 22.8536 27.1186 22.3359C27.2912 22.2373 27.5131 22.2126 27.6857 22.3112ZM16.6782 9.53505C17.5387 10.073 19.2371 11.1977 20.8448 12.6403C21.2525 13.0071 21.411 13.545 21.2977 14.0829C21.1166 14.9631 20.6863 16.7725 19.6673 19.0709C19.4409 19.5599 19.0106 19.8777 18.5124 19.9022C17.9237 19.9511 16.9952 20 15.9989 20C15.0025 20 14.0741 19.9511 13.4853 19.9022C12.9871 19.8777 12.5342 19.5599 12.3304 19.0709C11.3114 16.748 10.8812 14.9631 10.7 14.0829C10.5868 13.545 10.7679 12.9826 11.1529 12.6403C12.7833 11.1977 14.459 10.073 15.3195 9.53505C15.7271 9.26609 16.248 9.26609 16.6782 9.53505Z" fill="#84A6EB"/>
</svg>
