<svg width="32" height="32" viewBox="0 0 32 32" fill="none" xmlns="http://www.w3.org/2000/svg">
<path fill-rule="evenodd" clip-rule="evenodd" d="M25.9403 21.8116L25.9398 21.8135C25.7189 22.7136 24.9165 23.3333 23.9993 23.3333H10.666C9.73252 23.3333 8.92584 22.6955 8.72259 21.7877L8.72189 21.7846L5.06933 6H2.66602C1.56145 6 0.666016 5.10457 0.666016 4C0.666016 2.89543 1.56145 2 2.66602 2H6.66602C7.59945 2 8.40608 2.6377 8.6094 3.54541L9.79589 8.66667H26.666C27.2813 8.66667 27.8641 8.94545 28.2461 9.44473C28.632 9.93555 28.744 10.5582 28.6087 11.1382L25.9403 21.8116ZM10.7181 12.6667L12.2626 19.3333H22.4388L24.1055 12.6667H10.7181Z" fill="#84A6EB"/>
<path d="M12.3329 29.3333C11.0443 29.3333 9.99961 28.2887 9.99961 27C9.99961 25.7113 11.0443 24.6667 12.3329 24.6667C13.6216 24.6667 14.6663 25.7113 14.6663 27C14.6663 28.2887 13.6216 29.3333 12.3329 29.3333Z" fill="#84A6EB"/>
<path d="M19.9996 27C19.9996 28.2887 21.0443 29.3333 22.3329 29.3333C23.6216 29.3333 24.6663 28.2887 24.6663 27C24.6663 25.7113 23.6216 24.6667 22.3329 24.6667C21.0443 24.6667 19.9996 25.7113 19.9996 27Z" fill="#84A6EB"/>
</svg>
