<svg xmlns="http://www.w3.org/2000/svg" xmlns:xlink="http://www.w3.org/1999/xlink" viewBox="0 0 54.42 55.85">
  <defs>
    <linearGradient id="a" x1="27.21" y1="-0.23" x2="27.21" y2="51.4" gradientUnits="userSpaceOnUse">
      <stop offset="0" stop-color="#45a9d5"/>
      <stop offset="0.55" stop-color="#45a8d5"/>
      <stop offset="0.67" stop-color="#4883c8"/>
      <stop offset="0.81" stop-color="#4b62bc"/>
      <stop offset="0.92" stop-color="#4c4db5"/>
      <stop offset="1" stop-color="#4d46b2"/>
    </linearGradient>
  </defs>
  <title>moneda odiamante ico</title>
  <g style="isolation: isolate">
    <g>
      <g>
        <circle cx="27.21" cy="28.64" r="27.21" style="fill: #35efe6"/>
        <g>
          <circle cx="27.21" cy="28.64" r="21.31" style="fill: url(#a)"/>
          <g>
            <path d="M7199.5,7177.69a22.53,22.53,0,1,0,22.52,22.52A22.54,22.54,0,0,0,7199.5,7177.69Zm0,5.24a17.29,17.29,0,1,1-17.29,17.28A17.31,17.31,0,0,1,7199.5,7182.93Z" transform="translate(-7172.29 -7171.57)" style="fill: #fff"/>
            <g>
              <path d="M7214.44,7198.12l-.11-.15-3.73,5.22.06,6.41.17-.06,2.74-1a14.22,14.22,0,0,0,.85-1.53,18.28,18.28,0,0,0,.9-2.3,21.35,21.35,0,0,0,.59-2.39c.09-.59.15-1.17.18-1.75Z" transform="translate(-7172.29 -7171.57)" style="fill: #07071e"/>
              <path d="M7188.42,7203.37l-3.81-5.15-.11.15-1.59,2.41a16.53,16.53,0,0,0,.5,3.07c.09.36.2.72.32,1.08s.24.69.38,1,.35.85.55,1.26a16.09,16.09,0,0,0,.88,1.51h0l2.73,1,.17.06h0Z" transform="translate(-7172.29 -7171.57)" style="fill: #07071e"/>
              <path d="M7193.5,7213.37l.11.14,1.81,2.28v0a16.51,16.51,0,0,0,1.73.33l.29,0a17.23,17.23,0,0,0,2.17.11,17.84,17.84,0,0,0,2.32-.16l.13,0,.3-.05.11,0,.85-.18h0l.45-.11h0l1.79-2.32.11-.15-6.12-1.93Z" transform="translate(-7172.29 -7171.57)" style="fill: #07071e"/>
              <path d="M7212.38,7192.13h0V7192l-.13-2.94h0a16,16,0,0,0-1.2-1.28l-.1-.09a18.56,18.56,0,0,0-1.8-1.47,18.86,18.86,0,0,0-1.84-1.16l-.26-.14a14.18,14.18,0,0,0-1.6-.71h0l-2.79.82-.17.05,3.8,5.17h0Z" transform="translate(-7172.29 -7171.57)" style="fill: #07071e"/>
              <path d="M7196.28,7185.08h0l-.17-.05-2.8-.78a17.22,17.22,0,0,0-2.8,1.44l-.9.63c-.3.22-.6.45-.88.69s-.68.59-1,.9a14.3,14.3,0,0,0-1.17,1.3v0l-.09,2.9v.18l.26-.09h0l5.82-1.93,3.73-5.22Z" transform="translate(-7172.29 -7171.57)" style="fill: #07071e"/>
              <polygon points="26.8 35.71 26.92 35.8 26.95 35.82 27.03 35.76 34.46 30.28 34.52 30.24 34.49 30.17 31.56 21.41 31.53 21.32 31.49 21.33 31.35 21.33 31.35 21.33 21.63 21.48 21.52 21.48 21.51 21.49 20.18 25.71 18.87 29.85 18.87 29.85 18.86 29.87 18.86 29.87 18.85 29.93 18.84 29.93 18.94 30 26.8 35.71 26.8 35.71" style="fill: #07071e"/>
            </g>
          </g>
        </g>
      </g>
      <polygon points="37.15 10.64 53.78 0.68 41.1 16.68 37.15 10.64" style="fill: #fff"/>
      <polygon points="40.69 16.38 52.82 14.53 42.14 20.26 40.69 16.38" style="fill: #fff"/>
      <polygon points="34.35 10.08 37.03 0 37.15 12.23 34.35 10.08" style="fill: #fff"/>
      <path d="M7182.21,7213.81c-1.22.94-8.51,12.92-8.51,12.92l14.05-7.83Z" transform="translate(-7172.29 -7171.57)" style="fill: #fff"/>
      <polygon points="13.8 27.9 27.5 11.36 40.09 28.57 13.8 27.9" style="fill: #fff;opacity: 0.77;mix-blend-mode: overlay"/>
    </g>
  </g>
</svg>
