<svg xmlns="http://www.w3.org/2000/svg" xmlns:xlink="http://www.w3.org/1999/xlink" viewBox="0 0 54.42 55.78">
  <defs>
    <linearGradient id="a" x1="7198.88" y1="7206.75" x2="7199.29" y2="7181.68" gradientUnits="userSpaceOnUse">
      <stop offset="0" stop-color="#fff8a7"/>
      <stop offset="0.1" stop-color="#fff8a7" stop-opacity="0.98"/>
      <stop offset="0.23" stop-color="#fff8a7" stop-opacity="0.92"/>
      <stop offset="0.36" stop-color="#fff8a7" stop-opacity="0.83"/>
      <stop offset="0.5" stop-color="#fff8a7" stop-opacity="0.69"/>
      <stop offset="0.65" stop-color="#fff8a7" stop-opacity="0.52"/>
      <stop offset="0.81" stop-color="#fff8a7" stop-opacity="0.31"/>
      <stop offset="0.96" stop-color="#fff8a7" stop-opacity="0.06"/>
      <stop offset="1" stop-color="#fff8a7" stop-opacity="0"/>
    </linearGradient>
  </defs>
  <title>moneda oro ico</title>
  <circle cx="27.21" cy="28.57" r="27.21" style="fill: #a57813"/>
  <g>
    <g>
      <circle cx="26.68" cy="28.57" r="21.31" style="fill: #e5bc10"/>
      <path d="M7220.21,7198.75a21.29,21.29,0,0,0-42.38-1.15C7189.72,7205.39,7205.08,7203.37,7220.21,7198.75Z" transform="translate(-7172.29 -7171.61)" style="opacity: 0.66;fill: url(#a)"/>
    </g>
    <path d="M7199.5,7177.66a22.53,22.53,0,1,0,22.52,22.52A22.54,22.54,0,0,0,7199.5,7177.66Zm0,5.24a17.29,17.29,0,1,1-17.29,17.28A17.31,17.31,0,0,1,7199.5,7182.9Z" transform="translate(-7172.29 -7171.61)" style="fill: #fff"/>
    <g>
      <path d="M7214.44,7198.09l-.11-.15-3.73,5.21.06,6.42.17-.07,2.74-1a14.22,14.22,0,0,0,.85-1.53,17.57,17.57,0,0,0,.9-2.29,21,21,0,0,0,.59-2.4,17.1,17.1,0,0,0,.18-1.74Z" transform="translate(-7172.29 -7171.61)" style="fill: #a57813"/>
      <path d="M7188.42,7203.33l-3.81-5.15-.11.15-1.59,2.42a16.66,16.66,0,0,0,.5,3.07c.09.36.2.72.32,1.08s.24.69.38,1,.35.84.55,1.25a16.25,16.25,0,0,0,.88,1.52h0l2.73,1,.17.06h0Z" transform="translate(-7172.29 -7171.61)" style="fill: #a57813"/>
      <path d="M7193.5,7213.34l.11.14,1.81,2.27v0c.57.14,1.14.25,1.73.34l.29,0c.71.07,1.43.11,2.17.11a19.79,19.79,0,0,0,2.32-.17h.13l.3-.06.11,0c.29-.05.57-.11.85-.18h0l.45-.11h0l1.79-2.33.11-.14-6.12-1.93Z" transform="translate(-7172.29 -7171.61)" style="fill: #a57813"/>
      <path d="M7212.38,7192.09h0v-.18l-.13-2.93h0a14.44,14.44,0,0,0-1.2-1.28l-.1-.09a17.19,17.19,0,0,0-1.8-1.47,18.86,18.86,0,0,0-1.84-1.16l-.26-.14a16.32,16.32,0,0,0-1.6-.72h0l-2.79.82-.17.05,3.8,5.16h0Z" transform="translate(-7172.29 -7171.61)" style="fill: #a57813"/>
      <path d="M7196.28,7185.05h0l-.17-.05-2.8-.77a16.46,16.46,0,0,0-2.8,1.44c-.3.2-.6.4-.9.62s-.6.46-.88.7-.68.59-1,.89a15.78,15.78,0,0,0-1.17,1.3v0l-.09,2.89v.18l.26-.08h0l5.82-1.94,3.73-5.21Z" transform="translate(-7172.29 -7171.61)" style="fill: #a57813"/>
      <polygon points="26.8 35.64 26.92 35.73 26.95 35.75 27.03 35.7 34.46 30.21 34.52 30.17 34.49 30.11 31.56 21.35 31.53 21.26 31.49 21.26 31.35 21.26 31.35 21.26 21.63 21.41 21.52 21.41 21.51 21.42 20.18 25.64 18.87 29.78 18.87 29.78 18.86 29.8 18.86 29.8 18.85 29.86 18.84 29.86 18.94 29.93 26.8 35.64 26.8 35.64" style="fill: #a57813"/>
    </g>
  </g>
  <polygon points="36.98 10.64 53.61 0.68 40.93 16.68 36.98 10.64" style="fill: #fff"/>
  <polygon points="40.53 16.38 52.65 14.53 41.97 20.26 40.53 16.38" style="fill: #fff"/>
  <polygon points="34.19 10.08 36.86 0 36.98 12.23 34.19 10.08" style="fill: #fff"/>
  <path d="M7182,7213.84c-1.21.94-8.5,12.93-8.5,12.93l14.05-7.84Z" transform="translate(-7172.29 -7171.61)" style="fill: #fff"/>
</svg>
