<svg id="prefix__Layer_1" data-name="Layer 1" xmlns="http://www.w3.org/2000/svg" viewBox="0 0 100.3 141.79"><defs><style>.prefix__cls-1{fill:#fff}.prefix__cls-2{fill:#c92020}</style></defs><path class="prefix__cls-1" d="M933.58 539.68l4.15 3.53c8.52-11.6 18.28-22.43 26-34.75a84.19 84.19 0 0010.27-23.3 51.9 51.9 0 00-3.64-9.47c-1.84 10.35-6.39 20.37-12 29.29-7.6 12.08-16.96 22.92-24.78 34.7z" transform="translate(-911.21 -457.5)"/><path class="prefix__cls-2" d="M947.63 498c6.93-10.92 12.84-23.06 14.33-36q-1.63-2.3-3.29-4.56c-.32 13.83-7.38 27.84-15.48 40.6-6.84 10.78-14.58 21.22-20.44 32.38l2.29 1.94c6.61-11.95 15.23-22.75 22.59-34.36z" transform="translate(-911.21 -457.5)"/><path class="prefix__cls-1" d="M925 532.42l4.31 3.67c7.18-11.92 16.17-22.76 23.64-34.59 6.36-10.08 11.59-21.39 13.18-33.17-1.34-2.13-2.76-4.21-4.21-6.27-1.49 12.9-7.4 25-14.33 36-7.32 11.55-15.94 22.35-22.59 34.36zM1007.38 522a43.62 43.62 0 004.12-18.67 105.54 105.54 0 01-24.35 43.1c8.66-7.43 16.05-15.53 20.23-24.43z" transform="translate(-911.21 -457.5)"/><path class="prefix__cls-2" d="M937.73 543.21l4.06 3.45c9.3-11.37 19.47-22.16 27.27-34.71 5.55-8.95 9.77-19.2 11.15-29.67a77.66 77.66 0 01-5.06 8.74 41.93 41.93 0 00-1.18-5.86 84.19 84.19 0 01-10.27 23.3c-7.7 12.32-17.45 23.15-25.97 34.75z" transform="translate(-911.21 -457.5)"/><path class="prefix__cls-1" d="M941.79 546.66l4 3.38c10.15-11.09 20.75-21.82 28.65-34.61 7.39-12 12.19-26.39 11-40.45l-1.32-3a52.43 52.43 0 01-3.88 10.29c-1.38 10.47-5.6 20.72-11.15 29.67-7.83 12.56-18 23.35-27.3 34.72z" transform="translate(-911.21 -457.5)"/><path class="prefix__cls-2" d="M929.35 536.09l4.23 3.59c7.82-11.78 17.18-22.62 24.76-34.7 5.6-8.92 10.15-18.94 12-29.29a79.73 79.73 0 00-4.16-7.36c-1.59 11.78-6.82 23.09-13.18 33.17-7.48 11.83-16.47 22.67-23.65 34.59zM962.83 564.37l3.34-2.25a225.85 225.85 0 0021-15.65 105.54 105.54 0 0024.35-43.1 97.75 97.75 0 00-1.66-16.51c-.4.79-.84 1.56-1.3 2.34a79.1 79.1 0 01-13.31 38.32c-9.25 13.54-22.59 23.84-32.42 36.85z" transform="translate(-911.21 -457.5)"/><path class="prefix__cls-2" d="M1001.63 498.76a110.93 110.93 0 01-9 9.25c-6.26 14.53-17.63 26.53-28.81 37.85-11.83 12-24.13 24.37-30.81 39.79q5.63-4.35 11.38-8.49c9.28-14.18 22.3-25.52 33.77-38 10.65-11.57 20.33-25.06 23.47-40.4z" transform="translate(-911.21 -457.5)"/><path class="prefix__cls-1" d="M978.21 539.14c-11.47 12.5-24.49 23.84-33.77 38 6-4.32 12.1-8.53 18.39-12.79 9.83-13 23.17-23.31 32.4-36.85a79.1 79.1 0 0013.31-38.32 67.65 67.65 0 01-6.91 9.56c-3.14 15.36-12.82 28.85-23.42 40.4z" transform="translate(-911.21 -457.5)"/><path class="prefix__cls-2" d="M976.7 522.08c6.82-9.75 12.19-21 13.88-32.8a92.22 92.22 0 00-5.17-14.3c1.19 14.06-3.61 28.49-11 40.45-7.9 12.79-18.5 23.52-28.65 34.61l3.41 2.9-3.41-2.9a334.52 334.52 0 00-6.18 6.9c-10.4 12-19.87 25.65-23.42 41.16.08.29.15.58.23.86l.1-.12v.46q3.15-2.77 6.3-5.41c4.57-13.71 13.41-25.59 23-36.34 10.4-11.74 21.9-22.55 30.91-35.47z" transform="translate(-911.21 -457.5)"/><path class="prefix__cls-1" d="M992.68 508l-1.7 1.55.27-1.18a42.41 42.41 0 00-.67-19.1c-1.69 11.82-7.06 23.05-13.88 32.8-9 12.88-20.51 23.73-30.94 35.47-9.56 10.75-18.4 22.63-23 36.34q5.1-4.26 10.27-8.24c6.68-15.42 19-27.8 30.81-39.79 11.21-11.31 22.58-23.31 28.84-37.85z" transform="translate(-911.21 -457.5)"/><path d="M945.76 550l-4-3.38-.69.85.69-.85-4.06-3.45c-.43.59-.87 1.18-1.29 1.77.42-.59.86-1.18 1.29-1.77l-4.15-3.53-4.23-3.59-4.32-3.63c-.9 1.64-1.76 3.29-2.58 5 .82-1.69 1.68-3.34 2.58-5l-2.29-1.94c-1.07 2-2.08 4.1-3 6.2-8.48 19.18-12.31 44.7-3.59 61.4 3.55-15.51 13-29.16 23.42-41.16 2.06-2.31 4.13-4.6 6.22-6.92z" transform="translate(-911.21 -457.5)" fill="#1f43b5"/><g opacity=".33"><path d="M964.59 510.69A72.33 72.33 0 00975 490.23c-1.82-12.47-9.18-22.9-16.36-32.73v.35a72.7 72.7 0 015.95 52.84zM979.58 521a58.77 58.77 0 0011.71-12.87c2.64-13.33-2.16-24.86-7-35.68a83.73 83.73 0 01-4.71 48.55zM994.06 531c-11.18 13.86-26 24.2-40.41 34.62-13.54 9.76-27.12 20-37.16 33.26v.4c15.91-14 32-25.33 49.68-37.18 16.65-11.19 33.88-24.53 41.21-40.08 5.63-12 4.39-23.09 2.72-33.6.33 15.51-6.4 30.65-16.04 42.58z" transform="translate(-911.21 -457.5)"/></g></svg>