<svg id="prefix__Layer_1" data-name="Layer 1" xmlns="http://www.w3.org/2000/svg" viewBox="0 0 100.3 141.79"><defs><style>.prefix__cls-2{fill:#c92020}</style></defs><path d="M952.93 499.29c-6.87 10.82-14.63 21.29-20.49 32.48l34.31 37.75q4.51-3.09 9.15-6.2a218.22 218.22 0 0022.39-16.88L954 497.65z" transform="translate(-920.94 -458.7)" fill="#fff"/><path class="prefix__cls-2" d="M929.47 537.87c-8.47 19.18-12.3 44.7-3.58 61.4.08.3.15.59.24.88l.09-.12v.46c13.12-11.56 26.4-21.27 40.53-31l-34.31-37.75c-1.05 2.04-2.05 4.07-2.97 6.13zM1000.71 510.76c.1-.4.19-.79.27-1.19 2.78-13.62-2.22-25.36-7.16-36.38a62.59 62.59 0 01-8.93 19c-1.62-12.83-9.16-23.48-16.48-33.51-.31 13.24-6.8 26.64-14.46 38.95l44.34 48.79c8.06-7.1 14.87-14.83 18.82-23.21 5.92-12.55 4.25-24.21 2.47-35.17-4.23 8.14-11.1 15.72-18.87 22.72z" transform="translate(-920.94 -458.7)"/><g opacity=".33"><path d="M974.33 511.88a72.33 72.33 0 0010.44-20.46c-1.82-12.47-9.19-22.9-16.36-32.72v.35a72.67 72.67 0 015.92 52.83zM989.32 522.22a58.55 58.55 0 0011.7-12.88c2.65-13.32-2.15-24.86-7-35.68a83.77 83.77 0 01-4.7 48.56zM1003.8 532.21c-11.18 13.87-26 24.2-40.42 34.62-13.53 9.77-27.11 20-37.16 33.26v.4c15.91-14 32.06-25.32 49.68-37.17 16.65-11.2 33.88-24.54 41.21-40.09 5.64-12 4.39-23.09 2.72-33.59.33 15.49-6.4 30.62-16.03 42.57z" transform="translate(-920.94 -458.7)"/></g></svg>