<svg id="prefix__Layer_1" data-name="Layer 1" xmlns="http://www.w3.org/2000/svg" viewBox="0 0 153.63 170.79"><defs><style>.prefix__cls-1{fill:#1626c2}</style></defs><path class="prefix__cls-1" d="M941.81 503.79a196.34 196.34 0 00-20.76 23.33c-16.29 22.32-28.37 54.12-21.82 78.07 0 .4 0 .8.06 1.2l.16-.13c0 .2-.09.4-.13.59 12.93-7.2 25.72-13.39 38.77-19.16-.7-28.19-.83-56.38 3.72-83.9z" transform="translate(-897.42 -436.06)"/><path d="M972.17 473.13c-3.23 3.74-6.64 7.37-10.11 10.88-6.61 6.68-13.55 13.15-20.25 19.78-4.55 27.52-4.42 55.71-3.72 83.9 10.61-4.7 21.41-9.12 32.55-13.57-5.12-33.55-5.64-68.12 1.53-100.99z" transform="translate(-897.42 -436.06)" fill="#c8c1ca"/><path class="prefix__cls-1" d="M1020.39 512.16c.23-.48.47-1 .68-1.46 7.4-16.75 4.24-33.28 1-48.86-3.92 7.91-9.85 15.22-16.83 22 1.51-17-5.21-32.8-11.83-47.78-3.23 13.33-11.4 25.72-21.21 37.07-7.14 32.84-6.65 67.44-1.53 101l3.07-1.22c24.58-9.76 50.51-22.11 64.31-40.08 11.14-14.51 12.25-30 13-44.61-7.73 9.27-18.69 17.11-30.66 23.94z" transform="translate(-897.42 -436.06)"/><g opacity=".33"><path d="M986.1 506.22a95.53 95.53 0 0019.17-23.43c1.15-16.57-5.41-32.06-11.89-46.73 0 .15-.09.3-.12.45 6.49 23.31 3.89 48.85-7.16 69.71zM1002.51 523.73a77.71 77.71 0 0018.68-13.31c7.14-16.42 4.19-32.62 1-47.91a110.31 110.31 0 01-19.68 61.22zM1018.35 540.66c-18.27 14.72-40.24 23.88-61.74 33.26-20.17 8.78-40.52 18.12-57.18 32.42 0 .17-.08.34-.11.51 24.42-13.6 48.38-23.63 74.39-34 24.58-9.76 50.51-22.11 64.31-40.08 10.61-13.82 12.12-28.51 12.91-42.5-3.93 20.09-16.82 37.73-32.58 50.39z" transform="translate(-897.42 -436.06)"/></g></svg>