<svg id="prefix__Layer_1" data-name="Layer 1" xmlns="http://www.w3.org/2000/svg" viewBox="0 0 100.3 141.79"><defs><style>.prefix__cls-1{fill:#65ace5}</style></defs><path class="prefix__cls-1" d="M962.44 524.55c11-12.12 19.1-22.94 25.71-37.81-.13.19-.25.39-.38.59-1.62-12.83-9.15-23.48-16.48-33.52-.32 13.83-7.39 27.85-15.48 40.6s-17.46 25-23.45 38.58c-6.09 13.77-9.78 30.82-8.15 45.52a63.31 63.31 0 015.49-16c7.79-14.84 21.62-25.74 32.74-37.96zM1003.59 505.88l.21-.9c-5.87 10.46-14.67 19.59-23.24 27.83-9.44 9.09-19.4 17.74-27.44 28.11-5.81 7.52-10.6 16.12-12.93 25.37 12.36-9.95 25-18.74 38.59-27.86 16.65-11.19 33.88-24.53 41.21-40.08 5.92-12.56 4.25-24.21 2.47-35.17-4.23 8.12-11.1 15.7-18.87 22.7z" transform="translate(-923.82 -453.81)"/><path d="M980.56 532.81c8.57-8.24 17.37-17.37 23.24-27.83l.06-.29c2.79-13.62-2.22-25.37-7.16-36.39a61.76 61.76 0 01-8.55 18.44c-6.61 14.87-14.69 25.69-25.71 37.81s-25 23.12-32.74 38a63.31 63.31 0 00-5.49 16 44.92 44.92 0 004.56 15.88c.08.29.15.59.24.88l.1-.12v.46c3.67-3.24 7.36-6.33 11.08-9.32 2.33-9.25 7.12-17.85 12.93-25.37 8.04-10.41 18-19.06 27.44-28.15z" transform="translate(-923.82 -453.81)" fill="#fff"/><g opacity=".33"><path d="M977.21 507a72.33 72.33 0 0010.44-20.46c-1.82-12.47-9.19-22.9-16.36-32.73v.35a72.65 72.65 0 015.92 52.84zM992.2 517.34a59 59 0 0011.7-12.88c2.65-13.33-2.15-24.86-7-35.68a83.77 83.77 0 01-4.7 48.56zM1006.68 527.33c-11.18 13.86-26 24.2-40.42 34.62-13.53 9.77-27.11 20-37.15 33.26v.4c15.9-14 32-25.33 49.67-37.18 16.65-11.19 33.88-24.53 41.21-40.08 5.64-12 4.39-23.09 2.72-33.6.29 15.49-6.4 30.63-16.03 42.58z" transform="translate(-923.82 -453.81)"/></g></svg>