<svg data-name="Layer 1" xmlns="http://www.w3.org/2000/svg" viewBox="0 0 100.3 141.79"><path d="M31.99 40.59C25.12 51.41 17.36 61.88 11.5 73.07l34.31 37.75q4.51-3.09 9.15-6.2a219.45 219.45 0 0022.4-16.88L33.01 38.95z" fill="#fff"/><path d="M8.54 79.17c-8.48 19.18-12.31 44.7-3.59 61.4.08.3.15.59.24.88l.1-.12v.46c13.12-11.56 26.4-21.27 40.53-31L11.51 73.04c-1.06 2.04-2.06 4.07-2.97 6.13z" fill="#147235"/><path d="M79.76 52.06c.1-.4.19-.79.27-1.19 2.78-13.62-2.22-25.36-7.16-36.38a62.59 62.59 0 01-8.93 19C62.32 20.66 54.78 10.01 47.46-.02c-.31 13.24-6.8 26.64-14.46 38.95l44.35 48.79c8-7.1 14.87-14.83 18.81-23.21 5.92-12.55 4.25-24.21 2.47-35.17-4.22 8.14-11.09 15.72-18.87 22.72z" fill="#c92020"/><g opacity=".33"><path d="M53.39 53.18a72.33 72.33 0 0010.44-20.46C62.01 20.25 54.64 9.82 47.47 0v.35a72.67 72.67 0 015.92 52.83zM68.38 63.52a58.55 58.55 0 0011.7-12.88c2.65-13.32-2.15-24.86-7-35.68a83.69 83.69 0 01-4.7 48.56zM82.86 73.51c-11.18 13.87-26 24.2-40.42 34.62-13.53 9.77-27.11 20-37.15 33.26v.4c15.91-14 32.06-25.32 49.68-37.17 16.65-11.2 33.88-24.54 41.21-40.09 5.64-12 4.39-23.09 2.72-33.59.32 15.49-6.41 30.62-16.04 42.57z"/></g></svg>