<svg data-name="Layer 1" xmlns="http://www.w3.org/2000/svg" viewBox="0 0 153.63 170.79"><path d="M122.98 76.1c.23-.48.46-1 .68-1.45 7.4-16.76 4.24-33.29 1-48.87-3.92 7.92-9.86 15.22-16.83 22 1.51-17-5.21-32.8-11.84-47.78-4.28 17.73-17.31 33.79-31.31 47.95s-29.5 27.35-41 43.11C7.35 113.4-4.73 145.18 1.82 169.13c0 .4 0 .8.06 1.2l.16-.13c0 .2-.09.4-.13.6 24.41-13.61 48.37-23.64 74.39-34 24.58-9.76 50.51-22.1 64.3-40.08 11.14-14.51 12.26-30 13-44.61-7.69 9.29-18.66 17.16-30.62 23.99z" fill="#ffd41b"/><g opacity=".33"><path d="M88.68 70.16a95.15 95.15 0 0019.14-23.43c1.15-16.57-5.41-32.06-11.9-46.73 0 .15-.08.3-.12.45 6.53 23.31 3.94 48.85-7.12 69.71zM105.09 87.67a77.29 77.29 0 0018.73-13.27c7.13-16.42 4.19-32.61 1-47.9a110.37 110.37 0 01-19.73 61.17zM120.94 104.6c-18.28 14.72-40.24 23.89-61.75 33.26-20.16 8.78-40.51 18.12-57.17 32.42 0 .17-.08.34-.11.52 24.41-13.61 48.37-23.64 74.39-34 24.58-9.76 50.51-22.1 64.3-40.08 10.61-13.82 12.13-28.51 12.92-42.5-3.91 20.08-16.82 37.69-32.58 50.38z"/></g></svg>