<svg id="prefix__prefix__Layer_1" data-name="Layer 1" xmlns="http://www.w3.org/2000/svg" viewBox="0 0 90.04 70.78"><path style="fill:#f44336" d="M1004.51 544.29c-3-3.3-6-6.61-9-9.9-7.19-7.88-14.5-15.64-22.38-22.84a24.85 24.85 0 00-11.46-6.17c-7.06-1.57-13.91-.64-20.62 1.82a56.5 56.5 0 00-15.91 9.33 29.88 29.88 0 00-5.66 5.23c-4.48 6-5.46 12.75-3.72 19.92a27.67 27.67 0 0010.63 16c5.57 4.17 11.85 6.11 18.82 5 5-.79 9.32-2.89 12.24-7.26.74-1.12 1.44-2.27 2.16-3.41.11-.18.26-.34.41-.55l20.21 23.95c.16-.09.25-.12.32-.17q11.76-7.77 23.52-15.55a1.54 1.54 0 00.54-1c.11-3.46.17-6.92.25-10.37 0-.41.09-.81.13-1.21v-2.28c-.14-.23-.32-.37-.48-.54zm-59.77 11.3c-7.78 3.9-17.8-.32-22.36-9.43s-2-19.66 5.83-23.56 17.8.31 22.37 9.43 1.95 19.66-5.84 23.56zm55 1.49c0 .18-.23.4-.4.51l-11.07 6.76a2.11 2.11 0 01-.34.09v-2.9a.75.75 0 01.32-.54q5.6-3.43 11.22-6.85a1.08 1.08 0 01.27 0c.06.97.08 1.96.04 2.93zm-16.43 0l-4.93-6c-7.5-9.15-14.93-18.37-22.55-27.42a25.85 25.85 0 00-19.1-9.66h-.29c0-.09 0-.2.09-.23a42.9 42.9 0 0118.06-5.24 21.27 21.27 0 0116 5.83c7 6.5 13.63 13.38 20.1 20.42 3.37 3.67 6.71 7.36 10.06 11 .25.27.49.56.82.92z" transform="translate(-914.98 -504.61)"/><path svg="fill:#f44336" d="M968.66 517.39c-2.72 1.7-5.47 3.36-8.22 5-.19.11-.36.26-.57.41l3.76 4.73 10.27-6.17c-1.4-1.33-2.75-2.58-4-3.87a.8.8 0 00-1.24-.1z" transform="translate(-914.98 -504.61)"/></svg>